<svg width="32" height="32" viewBox="0 0 32 32" fill="none" xmlns="http://www.w3.org/2000/svg">
<path fill-rule="evenodd" clip-rule="evenodd" d="M9.08496 27.3995L13.2454 28.5033V27.0598L13.585 26.7202H15.9624V28.4183V29.607H13.4152L10.2736 28.2485L9.08496 27.3995Z" fill="#CDBDB2"/>
<path fill-rule="evenodd" clip-rule="evenodd" d="M22.6699 27.3995L18.5944 28.5033V27.0598L18.2548 26.7202H15.8775V28.4183V29.607H18.4246L21.5661 28.2485L22.6699 27.3995Z" fill="#CDBDB2"/>
<path fill-rule="evenodd" clip-rule="evenodd" d="M13.5847 24.258L13.2451 27.0598L13.6696 26.7202H18.0847L18.5941 27.0598L18.2545 24.258L17.5752 23.8334L14.179 23.9184L13.5847 24.258Z" fill="#393939"/>
<path fill-rule="evenodd" clip-rule="evenodd" d="M11.2925 5.32397L13.3302 10.0787L14.2643 23.9184H17.5755L18.5944 10.0787L20.4623 5.32397H11.2925Z" fill="#F89C35"/>
<path fill-rule="evenodd" clip-rule="evenodd" d="M2.37736 15.7674L0 22.6447L5.9434 22.305H9.76408V19.3334L9.59426 13.2202L8.74521 13.8995L2.37736 15.7674Z" fill="#F89D35"/>
<path fill-rule="evenodd" clip-rule="evenodd" d="M6.87744 16.5315L13.8397 16.7013L13.0756 20.2673L9.76423 19.4183L6.87744 16.5315Z" fill="#D87C30"/>
<path fill-rule="evenodd" clip-rule="evenodd" d="M6.87744 16.6165L9.76423 19.3334V22.0504L6.87744 16.6165Z" fill="#EA8D3A"/>
<path fill-rule="evenodd" clip-rule="evenodd" d="M9.76416 19.4183L13.1604 20.2674L14.2642 23.9184L13.5 24.3429L9.76416 22.1353V19.4183Z" fill="#F89D35"/>
<path fill-rule="evenodd" clip-rule="evenodd" d="M9.76421 22.1353L9.08496 27.3994L13.585 24.258L9.76421 22.1353Z" fill="#EB8F35"/>
<path fill-rule="evenodd" clip-rule="evenodd" d="M13.8398 16.7013L14.2644 23.9184L12.9907 20.2249L13.8398 16.7013Z" fill="#EA8E3A"/>
<path fill-rule="evenodd" clip-rule="evenodd" d="M5.8584 22.2202L9.76406 22.1353L9.08481 27.3994L5.8584 22.2202Z" fill="#D87C30"/>
<path fill-rule="evenodd" clip-rule="evenodd" d="M1.86792 29.6919L9.08483 27.3994L5.85842 22.2202L0 22.6447L1.86792 29.6919Z" fill="#EB8F35"/>
<path fill-rule="evenodd" clip-rule="evenodd" d="M13.3303 10.0786L9.6794 13.1352L6.87744 16.5314L13.8397 16.7862L13.3303 10.0786Z" fill="#E8821E"/>
<path fill-rule="evenodd" clip-rule="evenodd" d="M9.08496 27.3994L13.585 24.2579L13.2454 26.9749V28.5032L10.1888 27.9088L9.08496 27.3994Z" fill="#DFCEC3"/>
<path fill-rule="evenodd" clip-rule="evenodd" d="M22.6699 27.3994L18.2548 24.2579L18.5944 26.9749V28.5032L21.6511 27.9088L22.6699 27.3994Z" fill="#DFCEC3"/>
<path fill-rule="evenodd" clip-rule="evenodd" d="M11.9717 18.2296L12.9058 20.1825L9.59436 19.3335L11.9717 18.2296Z" fill="#393939"/>
<path fill-rule="evenodd" clip-rule="evenodd" d="M1.78271 1.3335L13.3299 10.0787L11.3771 5.32399L1.78271 1.3335Z" fill="#E88F35"/>
<path fill-rule="evenodd" clip-rule="evenodd" d="M1.78318 1.33337L0.254883 6.00319L1.10394 11.0975L0.5096 11.4371L1.35866 12.2013L0.679411 12.7956L1.61337 13.6447L1.01903 14.1541L2.37752 15.8522L8.74545 13.8994C11.8587 11.4088 13.387 10.1353 13.3304 10.0787C13.2738 10.0221 9.42469 7.10696 1.78318 1.33337Z" fill="#8E5A30"/>
<path fill-rule="evenodd" clip-rule="evenodd" d="M29.377 15.7674L31.7544 22.6447L25.811 22.305H21.9903V19.3334L22.1601 13.2202L23.0092 13.8995L29.377 15.7674Z" fill="#F89D35"/>
<path fill-rule="evenodd" clip-rule="evenodd" d="M24.877 16.5315L17.9147 16.7013L18.6788 20.2673L21.9902 19.4183L24.877 16.5315Z" fill="#D87C30"/>
<path fill-rule="evenodd" clip-rule="evenodd" d="M24.877 16.6165L21.9902 19.3334V22.0504L24.877 16.6165Z" fill="#EA8D3A"/>
<path fill-rule="evenodd" clip-rule="evenodd" d="M21.9902 19.4183L18.594 20.2674L17.4902 23.9184L18.2544 24.3429L21.9902 22.1353V19.4183Z" fill="#F89D35"/>
<path fill-rule="evenodd" clip-rule="evenodd" d="M21.9902 22.1353L22.6694 27.3994L18.2543 24.3428L21.9902 22.1353Z" fill="#EB8F35"/>
<path fill-rule="evenodd" clip-rule="evenodd" d="M17.9146 16.7013L17.49 23.9184L18.7637 20.2249L17.9146 16.7013Z" fill="#EA8E3A"/>
<path fill-rule="evenodd" clip-rule="evenodd" d="M25.896 22.2202L21.9903 22.1353L22.6696 27.3994L25.896 22.2202Z" fill="#D87C30"/>
<path fill-rule="evenodd" clip-rule="evenodd" d="M29.8865 29.6919L22.6696 27.3994L25.896 22.2202L31.7544 22.6447L29.8865 29.6919Z" fill="#EB8F35"/>
<path fill-rule="evenodd" clip-rule="evenodd" d="M18.4241 10.0786L22.075 13.1352L24.877 16.5314L17.9147 16.7862L18.4241 10.0786Z" fill="#E8821E"/>
<path fill-rule="evenodd" clip-rule="evenodd" d="M19.7827 18.2296L18.8486 20.1825L22.16 19.3335L19.7827 18.2296Z" fill="#393939"/>
<path fill-rule="evenodd" clip-rule="evenodd" d="M29.9717 1.3335L18.4245 10.0787L20.3773 5.32399L29.9717 1.3335Z" fill="#E88F35"/>
<path fill-rule="evenodd" clip-rule="evenodd" d="M29.9712 1.33337L31.4995 6.00319L30.6505 11.0975L31.2448 11.4371L30.3957 12.2013L31.075 12.7956L30.141 13.6447L30.7354 14.1541L29.3769 15.8522L23.0089 13.8994C19.8957 11.4088 18.3674 10.1353 18.424 10.0787C18.4806 10.0221 22.3297 7.10696 29.9712 1.33337Z" fill="#8E5A30"/>
</svg>
